<?xml version="1.0" encoding="UTF-8" standalone="no"?>
<svg
   width="48"
   height="48"
   viewBox="0 0 256 256"
   fill="none"
   version="1.1"
   id="svg2"
   sodipodi:docname="JavaScript.svg"
   inkscape:version="1.3 (0e150ed6c4, 2023-07-21)"
   xmlns:inkscape="http://www.inkscape.org/namespaces/inkscape"
   xmlns:sodipodi="http://sodipodi.sourceforge.net/DTD/sodipodi-0.dtd"
   xmlns="http://www.w3.org/2000/svg"
   xmlns:svg="http://www.w3.org/2000/svg">
  <defs
     id="defs2" />
  <sodipodi:namedview
     id="namedview2"
     pagecolor="#505050"
     bordercolor="#eeeeee"
     borderopacity="1"
     inkscape:showpageshadow="0"
     inkscape:pageopacity="0"
     inkscape:pagecheckerboard="0"
     inkscape:deskcolor="#505050"
     inkscape:zoom="6.4921876"
     inkscape:cx="33.732851"
     inkscape:cy="11.167268"
     inkscape:window-width="1920"
     inkscape:window-height="1027"
     inkscape:window-x="-8"
     inkscape:window-y="-8"
     inkscape:window-maximized="1"
     inkscape:current-layer="svg2" />
  <rect
     width="256"
     height="256"
     rx="60"
     fill="#F0DB4F"
     id="rect1"
     style="fill:#242938;fill-opacity:1" />
  <path
     d="m 42.869232,161.53379 19.591,-11.856 c 3.7794,6.70101 7.217497,12.371 15.464297,12.371 7.905017,0 12.889044,-3.09198 12.889044,-15.12 V 65.130832 h 24.058047 v 82.137958 c 0,24.91699 -14.606,36.25899 -35.916084,36.25899 -19.244704,0 -30.416101,-9.967 -36.086704,-21.99599"
     fill="#323330"
     id="path1"
     style="fill:#ffffff;fill-opacity:1" />
  <path
     d="m 127.93862,158.95581 19.588,-11.34102 c 5.157,8.42101 11.859,14.607 23.715,14.607 9.969,0 16.325,-4.98399 16.325,-11.858 0,-8.248 -6.53,-11.16999 -17.528,-15.97999 l -6.013,-2.57899 c -17.357,-7.38801 -28.871,-16.66802 -28.871,-36.257977 0,-18.044004 13.748,-31.792001 35.229,-31.792001 15.294,0 26.292,5.327997 34.196,19.246994 l -18.731,12.029007 c -4.125,-7.389007 -8.591,-10.310007 -15.465,-10.310007 -7.046,0 -11.514,4.468 -11.514,10.310007 0,7.216987 4.468,10.138967 14.778,14.607957 l 6.014,2.577 c 20.449,8.76501 31.963,17.69902 31.963,37.804 0,21.65399 -17.012,33.50999 -39.867,33.50999 -22.339,0 -36.774,-10.654 -43.819,-24.57397"
     fill="#323330"
     id="path2"
     style="fill:#fafff1;fill-opacity:1" />
</svg>
